<svg width="24" height="24" viewBox="0 0 24 24" fill="none" xmlns="http://www.w3.org/2000/svg">
<path fill-rule="evenodd" clip-rule="evenodd" d="M16.332 10.917C14.9174 10.917 13.7139 10.0129 13.2679 8.75098H5.50195C4.90382 8.75098 4.41895 8.2661 4.41895 7.66797C4.41895 7.06984 4.90382 6.58496 5.50195 6.58496H13.2679C13.7139 5.32305 14.9174 4.41895 16.332 4.41895C18.1264 4.41895 19.5811 5.87358 19.5811 7.66797C19.5811 9.46235 18.1264 10.917 16.332 10.917ZM16.332 8.75098C15.7339 8.75098 15.249 8.2661 15.249 7.66797C15.249 7.06984 15.7339 6.58496 16.332 6.58496C16.9302 6.58496 17.415 7.06984 17.415 7.66797C17.415 8.2661 16.9302 8.75098 16.332 8.75098Z" fill="#9C9C9C"/>
<path fill-rule="evenodd" clip-rule="evenodd" d="M7.66797 19.5811C9.08261 19.5811 10.2861 18.677 10.7321 17.415H18.498C19.0962 17.415 19.5811 16.9302 19.5811 16.332C19.5811 15.7339 19.0962 15.249 18.498 15.249H10.7321C10.2861 13.9871 9.08261 13.083 7.66797 13.083C5.87358 13.083 4.41895 14.5376 4.41895 16.332C4.41895 18.1264 5.87358 19.5811 7.66797 19.5811ZM7.66797 17.415C8.2661 17.415 8.75098 16.9302 8.75098 16.332C8.75098 15.7339 8.2661 15.249 7.66797 15.249C7.06984 15.249 6.58496 15.7339 6.58496 16.332C6.58496 16.9302 7.06984 17.415 7.66797 17.415Z" fill="#9C9C9C"/>
</svg>
