<svg width="19" height="19" viewBox="0 0 19 19" fill="none" xmlns="http://www.w3.org/2000/svg">
<path fill-rule="evenodd" clip-rule="evenodd" d="M14.6809 8.25803C14.6809 11.8053 11.8053 14.6809 8.25803 14.6809C4.71076 14.6809 1.83512 11.8053 1.83512 8.25803C1.83512 4.71076 4.71076 1.83512 8.25803 1.83512C11.8053 1.83512 14.6809 4.71076 14.6809 8.25803ZM13.4126 14.7102C11.9999 15.8403 10.2079 16.5161 8.25803 16.5161C3.69725 16.5161 0 12.8188 0 8.25803C0 3.69725 3.69725 0 8.25803 0C12.8188 0 16.5161 3.69725 16.5161 8.25803C16.5161 10.2079 15.8403 11.9999 14.7102 13.4126L19 17.7024C18.6417 18.0607 17.7024 19 17.7024 19L13.4126 14.7102Z" fill="#9C9C9C"/>
</svg>
